<mxfile host="Electron" modified="2024-03-04T21:36:15.843Z" agent="Mozilla/5.0 (X11; Linux x86_64) AppleWebKit/537.36 (KHTML, like Gecko) draw.io/23.1.5 Chrome/120.0.6099.109 Electron/28.1.0 Safari/537.36" etag="MlLV9Skf9L5tlOay7Fz0" version="23.1.5" type="device">
  <diagram id="RnCLzUl4eSxEsvMVz8-o" name="Page-1">
    <mxGraphModel dx="2470" dy="843" grid="1" gridSize="10" guides="1" tooltips="1" connect="1" arrows="1" fold="1" page="1" pageScale="1" pageWidth="850" pageHeight="1100" math="0" shadow="0">
      <root>
        <mxCell id="0" />
        <mxCell id="1" parent="0" />
        <mxCell id="U9l8ZiFaZ61yjVG8_agF-72" style="edgeStyle=orthogonalEdgeStyle;rounded=0;orthogonalLoop=1;jettySize=auto;html=1;exitX=1;exitY=0.5;exitDx=0;exitDy=0;entryX=0.5;entryY=0;entryDx=0;entryDy=0;startArrow=none;startFill=0;endArrow=none;endFill=0;" parent="1" source="QEzAl2PrGgzdigAZb0rT-1" target="QEzAl2PrGgzdigAZb0rT-14" edge="1">
          <mxGeometry relative="1" as="geometry">
            <Array as="points">
              <mxPoint x="325" y="602" />
            </Array>
          </mxGeometry>
        </mxCell>
        <mxCell id="QEzAl2PrGgzdigAZb0rT-1" value="Пользователь" style="rounded=0;whiteSpace=wrap;html=1;" parent="1" vertex="1">
          <mxGeometry x="135" y="571.5" width="120" height="60" as="geometry" />
        </mxCell>
        <mxCell id="QEzAl2PrGgzdigAZb0rT-14" value="Имеет роль" style="rhombus;whiteSpace=wrap;html=1;" parent="1" vertex="1">
          <mxGeometry x="270" y="650" width="110" height="80" as="geometry" />
        </mxCell>
        <mxCell id="QEzAl2PrGgzdigAZb0rT-53" value="Получает услуги" style="rhombus;whiteSpace=wrap;html=1;" parent="1" vertex="1">
          <mxGeometry x="250" y="849" width="110" height="80" as="geometry" />
        </mxCell>
        <mxCell id="3AcrKB5KS1CkjY7Gb4UU-227" value="user_id" style="ellipse;whiteSpace=wrap;html=1;" parent="1" vertex="1">
          <mxGeometry x="20" y="490" width="70" height="36.5" as="geometry" />
        </mxCell>
        <mxCell id="3AcrKB5KS1CkjY7Gb4UU-230" value="роль" style="ellipse;whiteSpace=wrap;html=1;" parent="1" vertex="1">
          <mxGeometry x="20" y="538.25" width="70" height="35" as="geometry" />
        </mxCell>
        <mxCell id="3AcrKB5KS1CkjY7Gb4UU-231" value="почта" style="ellipse;whiteSpace=wrap;html=1;" parent="1" vertex="1">
          <mxGeometry x="20" y="583.25" width="70" height="36.5" as="geometry" />
        </mxCell>
        <mxCell id="3AcrKB5KS1CkjY7Gb4UU-232" value="пароль" style="ellipse;whiteSpace=wrap;html=1;" parent="1" vertex="1">
          <mxGeometry x="20" y="633.25" width="70" height="36.5" as="geometry" />
        </mxCell>
        <mxCell id="3AcrKB5KS1CkjY7Gb4UU-234" style="edgeStyle=orthogonalEdgeStyle;rounded=0;orthogonalLoop=1;jettySize=auto;html=1;startArrow=none;startFill=0;endArrow=none;endFill=0;" parent="1" source="3AcrKB5KS1CkjY7Gb4UU-232" target="3AcrKB5KS1CkjY7Gb4UU-230" edge="1">
          <mxGeometry relative="1" as="geometry">
            <mxPoint x="95.00054656780145" y="648.25" as="sourcePoint" />
            <mxPoint x="95.56" y="555.75" as="targetPoint" />
            <Array as="points">
              <mxPoint x="111" y="651.25" />
              <mxPoint x="111" y="556.25" />
            </Array>
          </mxGeometry>
        </mxCell>
        <mxCell id="3AcrKB5KS1CkjY7Gb4UU-235" value="" style="endArrow=none;html=1;rounded=0;exitX=1;exitY=0.5;exitDx=0;exitDy=0;" parent="1" source="3AcrKB5KS1CkjY7Gb4UU-231" target="QEzAl2PrGgzdigAZb0rT-1" edge="1">
          <mxGeometry width="50" height="50" relative="1" as="geometry">
            <mxPoint x="245" y="608.25" as="sourcePoint" />
            <mxPoint x="295" y="558.25" as="targetPoint" />
          </mxGeometry>
        </mxCell>
        <mxCell id="3AcrKB5KS1CkjY7Gb4UU-236" value="" style="endArrow=none;html=1;rounded=0;edgeStyle=orthogonalEdgeStyle;" parent="1" edge="1">
          <mxGeometry width="50" height="50" relative="1" as="geometry">
            <mxPoint x="90" y="508.25" as="sourcePoint" />
            <mxPoint x="110" y="558.25" as="targetPoint" />
            <Array as="points">
              <mxPoint x="90" y="509.25" />
              <mxPoint x="111" y="509.25" />
              <mxPoint x="111" y="558.25" />
            </Array>
          </mxGeometry>
        </mxCell>
        <mxCell id="3AcrKB5KS1CkjY7Gb4UU-237" value="Клиент" style="rounded=0;whiteSpace=wrap;html=1;" parent="1" vertex="1">
          <mxGeometry x="40" y="801.88" width="120" height="60" as="geometry" />
        </mxCell>
        <mxCell id="3AcrKB5KS1CkjY7Gb4UU-239" value="email" style="ellipse;whiteSpace=wrap;html=1;" parent="1" vertex="1">
          <mxGeometry x="10" y="1120.5" width="70" height="35" as="geometry" />
        </mxCell>
        <mxCell id="3AcrKB5KS1CkjY7Gb4UU-240" value="абонемент" style="ellipse;whiteSpace=wrap;html=1;" parent="1" vertex="1">
          <mxGeometry x="10" y="1165.5" width="70" height="36.5" as="geometry" />
        </mxCell>
        <mxCell id="3AcrKB5KS1CkjY7Gb4UU-241" value="дата окончания абонемента" style="ellipse;whiteSpace=wrap;html=1;" parent="1" vertex="1">
          <mxGeometry x="-10" y="1215.5" width="90" height="46.62" as="geometry" />
        </mxCell>
        <mxCell id="3AcrKB5KS1CkjY7Gb4UU-242" style="edgeStyle=orthogonalEdgeStyle;rounded=0;orthogonalLoop=1;jettySize=auto;html=1;startArrow=none;startFill=0;endArrow=none;endFill=0;" parent="1" source="3AcrKB5KS1CkjY7Gb4UU-241" target="3AcrKB5KS1CkjY7Gb4UU-239" edge="1">
          <mxGeometry relative="1" as="geometry">
            <mxPoint x="85.00054656780145" y="1230.5" as="sourcePoint" />
            <mxPoint x="85.56" y="1138" as="targetPoint" />
            <Array as="points">
              <mxPoint x="101" y="1233.5" />
              <mxPoint x="101" y="1138.5" />
            </Array>
          </mxGeometry>
        </mxCell>
        <mxCell id="3AcrKB5KS1CkjY7Gb4UU-249" value="ФИО" style="ellipse;whiteSpace=wrap;html=1;" parent="1" vertex="1">
          <mxGeometry x="10" y="969.62" width="70" height="35" as="geometry" />
        </mxCell>
        <mxCell id="3AcrKB5KS1CkjY7Gb4UU-250" value="пол" style="ellipse;whiteSpace=wrap;html=1;" parent="1" vertex="1">
          <mxGeometry x="10" y="1014.62" width="70" height="36.5" as="geometry" />
        </mxCell>
        <mxCell id="3AcrKB5KS1CkjY7Gb4UU-251" value="дата рождения" style="ellipse;whiteSpace=wrap;html=1;" parent="1" vertex="1">
          <mxGeometry x="10" y="1064.62" width="70" height="36.5" as="geometry" />
        </mxCell>
        <mxCell id="3AcrKB5KS1CkjY7Gb4UU-254" value="" style="endArrow=none;html=1;rounded=0;exitX=1;exitY=0.5;exitDx=0;exitDy=0;" parent="1" source="3AcrKB5KS1CkjY7Gb4UU-250" edge="1">
          <mxGeometry width="50" height="50" relative="1" as="geometry">
            <mxPoint x="120" y="1089.62" as="sourcePoint" />
            <mxPoint x="100" y="1032.62" as="targetPoint" />
          </mxGeometry>
        </mxCell>
        <mxCell id="3AcrKB5KS1CkjY7Gb4UU-256" value="id" style="ellipse;whiteSpace=wrap;html=1;" parent="1" vertex="1">
          <mxGeometry x="10" y="872.12" width="70" height="35" as="geometry" />
        </mxCell>
        <mxCell id="3AcrKB5KS1CkjY7Gb4UU-257" value="user_id" style="ellipse;whiteSpace=wrap;html=1;" parent="1" vertex="1">
          <mxGeometry x="10" y="918.62" width="70" height="35" as="geometry" />
        </mxCell>
        <mxCell id="3AcrKB5KS1CkjY7Gb4UU-259" value="" style="endArrow=none;html=1;rounded=0;entryX=1;entryY=0.5;entryDx=0;entryDy=0;" parent="1" target="3AcrKB5KS1CkjY7Gb4UU-256" edge="1">
          <mxGeometry width="50" height="50" relative="1" as="geometry">
            <mxPoint x="100" y="992.12" as="sourcePoint" />
            <mxPoint x="320" y="1182.12" as="targetPoint" />
            <Array as="points">
              <mxPoint x="100" y="890.12" />
            </Array>
          </mxGeometry>
        </mxCell>
        <mxCell id="3AcrKB5KS1CkjY7Gb4UU-260" value="Тренер" style="rounded=0;whiteSpace=wrap;html=1;" parent="1" vertex="1">
          <mxGeometry x="930" y="761.68" width="120" height="60" as="geometry" />
        </mxCell>
        <mxCell id="3AcrKB5KS1CkjY7Gb4UU-261" value="стаж" style="ellipse;whiteSpace=wrap;html=1;" parent="1" vertex="1">
          <mxGeometry x="1090" y="1022.56" width="70" height="35" as="geometry" />
        </mxCell>
        <mxCell id="3AcrKB5KS1CkjY7Gb4UU-262" value="рейтинг" style="ellipse;whiteSpace=wrap;html=1;" parent="1" vertex="1">
          <mxGeometry x="1090" y="1067.56" width="70" height="36.5" as="geometry" />
        </mxCell>
        <mxCell id="3AcrKB5KS1CkjY7Gb4UU-266" value="ФИО" style="ellipse;whiteSpace=wrap;html=1;" parent="1" vertex="1">
          <mxGeometry x="1090" y="871.68" width="70" height="35" as="geometry" />
        </mxCell>
        <mxCell id="3AcrKB5KS1CkjY7Gb4UU-267" value="пол" style="ellipse;whiteSpace=wrap;html=1;" parent="1" vertex="1">
          <mxGeometry x="1090" y="916.68" width="70" height="36.5" as="geometry" />
        </mxCell>
        <mxCell id="3AcrKB5KS1CkjY7Gb4UU-268" value="специали-&lt;br&gt;зация" style="ellipse;whiteSpace=wrap;html=1;" parent="1" vertex="1">
          <mxGeometry x="1090" y="966.68" width="70" height="36.5" as="geometry" />
        </mxCell>
        <mxCell id="3AcrKB5KS1CkjY7Gb4UU-272" value="id" style="ellipse;whiteSpace=wrap;html=1;" parent="1" vertex="1">
          <mxGeometry x="1090" y="774.18" width="70" height="35" as="geometry" />
        </mxCell>
        <mxCell id="3AcrKB5KS1CkjY7Gb4UU-273" value="user_id" style="ellipse;whiteSpace=wrap;html=1;" parent="1" vertex="1">
          <mxGeometry x="1090" y="819.18" width="70" height="36.5" as="geometry" />
        </mxCell>
        <mxCell id="3AcrKB5KS1CkjY7Gb4UU-277" value="Тренировка" style="rounded=0;whiteSpace=wrap;html=1;" parent="1" vertex="1">
          <mxGeometry x="475" y="1351.8100000000002" width="120" height="60" as="geometry" />
        </mxCell>
        <mxCell id="3AcrKB5KS1CkjY7Gb4UU-278" value="длитель-ность" style="ellipse;whiteSpace=wrap;html=1;" parent="1" vertex="1">
          <mxGeometry x="360" y="1318.5600000000002" width="70" height="35" as="geometry" />
        </mxCell>
        <mxCell id="3AcrKB5KS1CkjY7Gb4UU-279" value="сложность" style="ellipse;whiteSpace=wrap;html=1;" parent="1" vertex="1">
          <mxGeometry x="360" y="1363.5600000000002" width="70" height="36.5" as="geometry" />
        </mxCell>
        <mxCell id="3AcrKB5KS1CkjY7Gb4UU-280" value="" style="endArrow=none;html=1;rounded=0;exitX=1;exitY=0.5;exitDx=0;exitDy=0;" parent="1" source="3AcrKB5KS1CkjY7Gb4UU-279" target="3AcrKB5KS1CkjY7Gb4UU-277" edge="1">
          <mxGeometry width="50" height="50" relative="1" as="geometry">
            <mxPoint x="585" y="1388.5600000000002" as="sourcePoint" />
            <mxPoint x="635" y="1338.5600000000002" as="targetPoint" />
          </mxGeometry>
        </mxCell>
        <mxCell id="3AcrKB5KS1CkjY7Gb4UU-281" value="название" style="ellipse;whiteSpace=wrap;html=1;" parent="1" vertex="1">
          <mxGeometry x="360" y="1164.3100000000002" width="70" height="35" as="geometry" />
        </mxCell>
        <mxCell id="3AcrKB5KS1CkjY7Gb4UU-282" value="описание" style="ellipse;whiteSpace=wrap;html=1;" parent="1" vertex="1">
          <mxGeometry x="360" y="1212.68" width="70" height="36.5" as="geometry" />
        </mxCell>
        <mxCell id="3AcrKB5KS1CkjY7Gb4UU-283" value="тренер" style="ellipse;whiteSpace=wrap;html=1;" parent="1" vertex="1">
          <mxGeometry x="360" y="1262.68" width="70" height="36.5" as="geometry" />
        </mxCell>
        <mxCell id="3AcrKB5KS1CkjY7Gb4UU-284" style="edgeStyle=orthogonalEdgeStyle;rounded=0;orthogonalLoop=1;jettySize=auto;html=1;startArrow=none;startFill=0;endArrow=none;endFill=0;" parent="1" source="3AcrKB5KS1CkjY7Gb4UU-283" target="3AcrKB5KS1CkjY7Gb4UU-281" edge="1">
          <mxGeometry relative="1" as="geometry">
            <mxPoint x="435.0005465678014" y="1277.68" as="sourcePoint" />
            <mxPoint x="435.55999999999995" y="1185.18" as="targetPoint" />
            <Array as="points">
              <mxPoint x="451" y="1280.68" />
              <mxPoint x="451" y="1185.68" />
            </Array>
          </mxGeometry>
        </mxCell>
        <mxCell id="3AcrKB5KS1CkjY7Gb4UU-285" value="" style="endArrow=none;html=1;rounded=0;exitX=1;exitY=0.5;exitDx=0;exitDy=0;" parent="1" source="3AcrKB5KS1CkjY7Gb4UU-282" edge="1">
          <mxGeometry width="50" height="50" relative="1" as="geometry">
            <mxPoint x="470" y="1287.68" as="sourcePoint" />
            <mxPoint x="450" y="1230.68" as="targetPoint" />
          </mxGeometry>
        </mxCell>
        <mxCell id="3AcrKB5KS1CkjY7Gb4UU-286" value="" style="endArrow=none;html=1;rounded=0;" parent="1" edge="1">
          <mxGeometry width="50" height="50" relative="1" as="geometry">
            <mxPoint x="450" y="1340.18" as="sourcePoint" />
            <mxPoint x="450" y="1280.18" as="targetPoint" />
          </mxGeometry>
        </mxCell>
        <mxCell id="3AcrKB5KS1CkjY7Gb4UU-288" value="id" style="ellipse;whiteSpace=wrap;html=1;" parent="1" vertex="1">
          <mxGeometry x="360" y="1115.18" width="70" height="36.5" as="geometry" />
        </mxCell>
        <mxCell id="3AcrKB5KS1CkjY7Gb4UU-289" value="" style="endArrow=none;html=1;rounded=0;exitX=1;exitY=0.5;exitDx=0;exitDy=0;" parent="1" source="3AcrKB5KS1CkjY7Gb4UU-288" edge="1">
          <mxGeometry width="50" height="50" relative="1" as="geometry">
            <mxPoint x="470" y="1190.18" as="sourcePoint" />
            <mxPoint x="450" y="1191.8100000000002" as="targetPoint" />
            <Array as="points">
              <mxPoint x="450" y="1133.8100000000002" />
            </Array>
          </mxGeometry>
        </mxCell>
        <mxCell id="3AcrKB5KS1CkjY7Gb4UU-291" value="" style="endArrow=none;html=1;rounded=0;entryX=1;entryY=0.5;entryDx=0;entryDy=0;" parent="1" target="3AcrKB5KS1CkjY7Gb4UU-278" edge="1">
          <mxGeometry width="50" height="50" relative="1" as="geometry">
            <mxPoint x="450" y="1385.18" as="sourcePoint" />
            <mxPoint x="490" y="1455.18" as="targetPoint" />
            <Array as="points">
              <mxPoint x="450" y="1335.18" />
            </Array>
          </mxGeometry>
        </mxCell>
        <mxCell id="3AcrKB5KS1CkjY7Gb4UU-292" value="Расписание" style="rounded=0;whiteSpace=wrap;html=1;" parent="1" vertex="1">
          <mxGeometry x="595" y="1087.25" width="120" height="60" as="geometry" />
        </mxCell>
        <mxCell id="3AcrKB5KS1CkjY7Gb4UU-293" value="перс/груп" style="ellipse;whiteSpace=wrap;html=1;" parent="1" vertex="1">
          <mxGeometry x="480" y="1054" width="70" height="35" as="geometry" />
        </mxCell>
        <mxCell id="3AcrKB5KS1CkjY7Gb4UU-294" value="client_id" style="ellipse;whiteSpace=wrap;html=1;" parent="1" vertex="1">
          <mxGeometry x="480" y="1099" width="70" height="36.5" as="geometry" />
        </mxCell>
        <mxCell id="3AcrKB5KS1CkjY7Gb4UU-295" value="" style="endArrow=none;html=1;rounded=0;exitX=1;exitY=0.5;exitDx=0;exitDy=0;" parent="1" source="3AcrKB5KS1CkjY7Gb4UU-294" target="3AcrKB5KS1CkjY7Gb4UU-292" edge="1">
          <mxGeometry width="50" height="50" relative="1" as="geometry">
            <mxPoint x="705" y="1124" as="sourcePoint" />
            <mxPoint x="755" y="1074" as="targetPoint" />
          </mxGeometry>
        </mxCell>
        <mxCell id="3AcrKB5KS1CkjY7Gb4UU-296" value="id" style="ellipse;whiteSpace=wrap;html=1;" parent="1" vertex="1">
          <mxGeometry x="480" y="899.75" width="70" height="35" as="geometry" />
        </mxCell>
        <mxCell id="3AcrKB5KS1CkjY7Gb4UU-297" value="workout_id" style="ellipse;whiteSpace=wrap;html=1;" parent="1" vertex="1">
          <mxGeometry x="480" y="948.12" width="70" height="36.5" as="geometry" />
        </mxCell>
        <mxCell id="3AcrKB5KS1CkjY7Gb4UU-298" value="дата и время" style="ellipse;whiteSpace=wrap;html=1;" parent="1" vertex="1">
          <mxGeometry x="480" y="998.12" width="70" height="36.5" as="geometry" />
        </mxCell>
        <mxCell id="3AcrKB5KS1CkjY7Gb4UU-299" style="edgeStyle=orthogonalEdgeStyle;rounded=0;orthogonalLoop=1;jettySize=auto;html=1;startArrow=none;startFill=0;endArrow=none;endFill=0;" parent="1" source="3AcrKB5KS1CkjY7Gb4UU-298" target="3AcrKB5KS1CkjY7Gb4UU-296" edge="1">
          <mxGeometry relative="1" as="geometry">
            <mxPoint x="555.0005465678014" y="1013.12" as="sourcePoint" />
            <mxPoint x="555.56" y="920.62" as="targetPoint" />
            <Array as="points">
              <mxPoint x="571" y="1016.12" />
              <mxPoint x="571" y="921.12" />
            </Array>
          </mxGeometry>
        </mxCell>
        <mxCell id="3AcrKB5KS1CkjY7Gb4UU-300" value="" style="endArrow=none;html=1;rounded=0;exitX=1;exitY=0.5;exitDx=0;exitDy=0;" parent="1" source="3AcrKB5KS1CkjY7Gb4UU-297" edge="1">
          <mxGeometry width="50" height="50" relative="1" as="geometry">
            <mxPoint x="590" y="1023.12" as="sourcePoint" />
            <mxPoint x="570" y="966.12" as="targetPoint" />
          </mxGeometry>
        </mxCell>
        <mxCell id="3AcrKB5KS1CkjY7Gb4UU-301" value="" style="endArrow=none;html=1;rounded=0;" parent="1" edge="1">
          <mxGeometry width="50" height="50" relative="1" as="geometry">
            <mxPoint x="570" y="1075.62" as="sourcePoint" />
            <mxPoint x="570" y="1015.62" as="targetPoint" />
          </mxGeometry>
        </mxCell>
        <mxCell id="3AcrKB5KS1CkjY7Gb4UU-304" value="" style="endArrow=none;html=1;rounded=0;entryX=1;entryY=0.5;entryDx=0;entryDy=0;" parent="1" target="3AcrKB5KS1CkjY7Gb4UU-293" edge="1">
          <mxGeometry width="50" height="50" relative="1" as="geometry">
            <mxPoint x="570" y="1120.62" as="sourcePoint" />
            <mxPoint x="610" y="1190.62" as="targetPoint" />
            <Array as="points">
              <mxPoint x="570" y="1070.62" />
            </Array>
          </mxGeometry>
        </mxCell>
        <mxCell id="3AcrKB5KS1CkjY7Gb4UU-306" value="Абонемент" style="rounded=0;whiteSpace=wrap;html=1;" parent="1" vertex="1">
          <mxGeometry x="-282.5" y="801.88" width="120" height="60" as="geometry" />
        </mxCell>
        <mxCell id="3AcrKB5KS1CkjY7Gb4UU-307" value="цена" style="ellipse;whiteSpace=wrap;html=1;" parent="1" vertex="1">
          <mxGeometry x="-397.5" y="768.63" width="70" height="35" as="geometry" />
        </mxCell>
        <mxCell id="3AcrKB5KS1CkjY7Gb4UU-308" value="кол-во дней заморозки" style="ellipse;whiteSpace=wrap;html=1;" parent="1" vertex="1">
          <mxGeometry x="-397.5" y="813.63" width="70" height="36.5" as="geometry" />
        </mxCell>
        <mxCell id="3AcrKB5KS1CkjY7Gb4UU-309" value="" style="endArrow=none;html=1;rounded=0;exitX=1;exitY=0.5;exitDx=0;exitDy=0;" parent="1" source="3AcrKB5KS1CkjY7Gb4UU-308" target="3AcrKB5KS1CkjY7Gb4UU-306" edge="1">
          <mxGeometry width="50" height="50" relative="1" as="geometry">
            <mxPoint x="-172.5" y="838.63" as="sourcePoint" />
            <mxPoint x="-122.5" y="788.63" as="targetPoint" />
          </mxGeometry>
        </mxCell>
        <mxCell id="3AcrKB5KS1CkjY7Gb4UU-311" value="название" style="ellipse;whiteSpace=wrap;html=1;" parent="1" vertex="1">
          <mxGeometry x="-397.5" y="662.75" width="70" height="36.5" as="geometry" />
        </mxCell>
        <mxCell id="3AcrKB5KS1CkjY7Gb4UU-312" value="длительно-сть" style="ellipse;whiteSpace=wrap;html=1;" parent="1" vertex="1">
          <mxGeometry x="-397.5" y="712.75" width="70" height="36.5" as="geometry" />
        </mxCell>
        <mxCell id="3AcrKB5KS1CkjY7Gb4UU-314" value="" style="endArrow=none;html=1;rounded=0;exitX=1;exitY=0.5;exitDx=0;exitDy=0;entryX=1;entryY=0.5;entryDx=0;entryDy=0;" parent="1" source="3AcrKB5KS1CkjY7Gb4UU-311" target="3AcrKB5KS1CkjY7Gb4UU-312" edge="1">
          <mxGeometry width="50" height="50" relative="1" as="geometry">
            <mxPoint x="-287.5" y="737.75" as="sourcePoint" />
            <mxPoint x="-307.5" y="680.75" as="targetPoint" />
            <Array as="points">
              <mxPoint x="-307.5" y="681.25" />
              <mxPoint x="-307.5" y="731.25" />
            </Array>
          </mxGeometry>
        </mxCell>
        <mxCell id="3AcrKB5KS1CkjY7Gb4UU-315" value="" style="endArrow=none;html=1;rounded=0;" parent="1" edge="1">
          <mxGeometry width="50" height="50" relative="1" as="geometry">
            <mxPoint x="-307.5" y="790.25" as="sourcePoint" />
            <mxPoint x="-307.5" y="730.25" as="targetPoint" />
          </mxGeometry>
        </mxCell>
        <mxCell id="3AcrKB5KS1CkjY7Gb4UU-318" value="" style="endArrow=none;html=1;rounded=0;entryX=1;entryY=0.5;entryDx=0;entryDy=0;" parent="1" target="3AcrKB5KS1CkjY7Gb4UU-307" edge="1">
          <mxGeometry width="50" height="50" relative="1" as="geometry">
            <mxPoint x="-307.5" y="835.25" as="sourcePoint" />
            <mxPoint x="-267.5" y="905.25" as="targetPoint" />
            <Array as="points">
              <mxPoint x="-307.5" y="785.25" />
            </Array>
          </mxGeometry>
        </mxCell>
        <mxCell id="3AcrKB5KS1CkjY7Gb4UU-320" value="Бонусы" style="rounded=0;whiteSpace=wrap;html=1;" parent="1" vertex="1">
          <mxGeometry x="-255" y="557.2500000000001" width="120" height="60" as="geometry" />
        </mxCell>
        <mxCell id="3AcrKB5KS1CkjY7Gb4UU-321" value="клиент" style="ellipse;whiteSpace=wrap;html=1;" parent="1" vertex="1">
          <mxGeometry x="-370" y="524.0000000000001" width="70" height="35" as="geometry" />
        </mxCell>
        <mxCell id="3AcrKB5KS1CkjY7Gb4UU-322" value="кол-во бонусов" style="ellipse;whiteSpace=wrap;html=1;" parent="1" vertex="1">
          <mxGeometry x="-370" y="569.0000000000001" width="70" height="36.5" as="geometry" />
        </mxCell>
        <mxCell id="3AcrKB5KS1CkjY7Gb4UU-323" value="" style="endArrow=none;html=1;rounded=0;exitX=1;exitY=0.5;exitDx=0;exitDy=0;" parent="1" source="3AcrKB5KS1CkjY7Gb4UU-322" target="3AcrKB5KS1CkjY7Gb4UU-320" edge="1">
          <mxGeometry width="50" height="50" relative="1" as="geometry">
            <mxPoint x="-145" y="594.0000000000001" as="sourcePoint" />
            <mxPoint x="-95" y="544.0000000000001" as="targetPoint" />
          </mxGeometry>
        </mxCell>
        <mxCell id="3AcrKB5KS1CkjY7Gb4UU-325" value="id" style="ellipse;whiteSpace=wrap;html=1;" parent="1" vertex="1">
          <mxGeometry x="-370" y="468.12" width="70" height="36.5" as="geometry" />
        </mxCell>
        <mxCell id="3AcrKB5KS1CkjY7Gb4UU-327" value="" style="endArrow=none;html=1;rounded=0;entryX=1;entryY=0.5;entryDx=0;entryDy=0;" parent="1" target="3AcrKB5KS1CkjY7Gb4UU-325" edge="1">
          <mxGeometry width="50" height="50" relative="1" as="geometry">
            <mxPoint x="-280" y="545.62" as="sourcePoint" />
            <mxPoint x="-280" y="485.62" as="targetPoint" />
            <Array as="points">
              <mxPoint x="-279.5" y="486.2400000000001" />
            </Array>
          </mxGeometry>
        </mxCell>
        <mxCell id="3AcrKB5KS1CkjY7Gb4UU-328" value="" style="endArrow=none;html=1;rounded=0;entryX=1;entryY=0.5;entryDx=0;entryDy=0;" parent="1" target="3AcrKB5KS1CkjY7Gb4UU-321" edge="1">
          <mxGeometry width="50" height="50" relative="1" as="geometry">
            <mxPoint x="-280" y="590.62" as="sourcePoint" />
            <mxPoint x="-240" y="660.62" as="targetPoint" />
            <Array as="points">
              <mxPoint x="-280" y="540.62" />
            </Array>
          </mxGeometry>
        </mxCell>
        <mxCell id="3AcrKB5KS1CkjY7Gb4UU-329" value="Услуги и товары" style="rounded=0;whiteSpace=wrap;html=1;" parent="1" vertex="1">
          <mxGeometry x="265" y="1032.5" width="120" height="60" as="geometry" />
        </mxCell>
        <mxCell id="3AcrKB5KS1CkjY7Gb4UU-330" value="название" style="ellipse;whiteSpace=wrap;html=1;" parent="1" vertex="1">
          <mxGeometry x="150" y="999.2499999999999" width="70" height="35" as="geometry" />
        </mxCell>
        <mxCell id="3AcrKB5KS1CkjY7Gb4UU-331" value="цена" style="ellipse;whiteSpace=wrap;html=1;" parent="1" vertex="1">
          <mxGeometry x="150" y="1044.25" width="70" height="36.5" as="geometry" />
        </mxCell>
        <mxCell id="3AcrKB5KS1CkjY7Gb4UU-332" value="" style="endArrow=none;html=1;rounded=0;exitX=1;exitY=0.5;exitDx=0;exitDy=0;" parent="1" source="3AcrKB5KS1CkjY7Gb4UU-331" target="3AcrKB5KS1CkjY7Gb4UU-329" edge="1">
          <mxGeometry width="50" height="50" relative="1" as="geometry">
            <mxPoint x="375" y="1069.25" as="sourcePoint" />
            <mxPoint x="425" y="1019.2499999999999" as="targetPoint" />
          </mxGeometry>
        </mxCell>
        <mxCell id="3AcrKB5KS1CkjY7Gb4UU-333" value="id" style="ellipse;whiteSpace=wrap;html=1;" parent="1" vertex="1">
          <mxGeometry x="150" y="943.37" width="70" height="36.5" as="geometry" />
        </mxCell>
        <mxCell id="3AcrKB5KS1CkjY7Gb4UU-334" value="" style="endArrow=none;html=1;rounded=0;entryX=1;entryY=0.5;entryDx=0;entryDy=0;" parent="1" target="3AcrKB5KS1CkjY7Gb4UU-333" edge="1">
          <mxGeometry width="50" height="50" relative="1" as="geometry">
            <mxPoint x="240" y="1020.87" as="sourcePoint" />
            <mxPoint x="240" y="960.87" as="targetPoint" />
            <Array as="points">
              <mxPoint x="240.5" y="961.4899999999999" />
            </Array>
          </mxGeometry>
        </mxCell>
        <mxCell id="3AcrKB5KS1CkjY7Gb4UU-335" value="" style="endArrow=none;html=1;rounded=0;entryX=1;entryY=0.5;entryDx=0;entryDy=0;" parent="1" target="3AcrKB5KS1CkjY7Gb4UU-330" edge="1">
          <mxGeometry width="50" height="50" relative="1" as="geometry">
            <mxPoint x="240" y="1065.8700000000001" as="sourcePoint" />
            <mxPoint x="280" y="1135.8700000000001" as="targetPoint" />
            <Array as="points">
              <mxPoint x="240" y="1015.87" />
            </Array>
          </mxGeometry>
        </mxCell>
        <mxCell id="3AcrKB5KS1CkjY7Gb4UU-338" value="" style="endArrow=none;html=1;rounded=0;entryX=0;entryY=0.5;entryDx=0;entryDy=0;exitX=1;exitY=0.5;exitDx=0;exitDy=0;edgeStyle=orthogonalEdgeStyle;" parent="1" source="3AcrKB5KS1CkjY7Gb4UU-237" target="QEzAl2PrGgzdigAZb0rT-14" edge="1">
          <mxGeometry width="50" height="50" relative="1" as="geometry">
            <mxPoint x="70" y="860" as="sourcePoint" />
            <mxPoint x="120" y="810" as="targetPoint" />
            <Array as="points">
              <mxPoint x="160" y="810" />
              <mxPoint x="215" y="810" />
              <mxPoint x="215" y="690" />
            </Array>
          </mxGeometry>
        </mxCell>
        <mxCell id="3AcrKB5KS1CkjY7Gb4UU-386" value="1" style="edgeLabel;html=1;align=center;verticalAlign=middle;resizable=0;points=[];" parent="3AcrKB5KS1CkjY7Gb4UU-338" vertex="1" connectable="0">
          <mxGeometry x="-0.7469" y="1" relative="1" as="geometry">
            <mxPoint y="-8" as="offset" />
          </mxGeometry>
        </mxCell>
        <mxCell id="3AcrKB5KS1CkjY7Gb4UU-339" value="" style="endArrow=none;html=1;rounded=0;entryX=0.5;entryY=1;entryDx=0;entryDy=0;" parent="1" target="3AcrKB5KS1CkjY7Gb4UU-237" edge="1">
          <mxGeometry width="50" height="50" relative="1" as="geometry">
            <mxPoint x="100" y="1147.62" as="sourcePoint" />
            <mxPoint x="210" y="1017.62" as="targetPoint" />
          </mxGeometry>
        </mxCell>
        <mxCell id="3AcrKB5KS1CkjY7Gb4UU-341" value="" style="endArrow=none;html=1;rounded=0;exitX=1;exitY=0.5;exitDx=0;exitDy=0;" parent="1" source="3AcrKB5KS1CkjY7Gb4UU-257" edge="1">
          <mxGeometry width="50" height="50" relative="1" as="geometry">
            <mxPoint x="160" y="1067.62" as="sourcePoint" />
            <mxPoint x="100" y="936.62" as="targetPoint" />
          </mxGeometry>
        </mxCell>
        <mxCell id="3AcrKB5KS1CkjY7Gb4UU-342" value="" style="endArrow=none;html=1;rounded=0;" parent="1" edge="1">
          <mxGeometry width="50" height="50" relative="1" as="geometry">
            <mxPoint x="80" y="986.62" as="sourcePoint" />
            <mxPoint x="100" y="986.62" as="targetPoint" />
          </mxGeometry>
        </mxCell>
        <mxCell id="3AcrKB5KS1CkjY7Gb4UU-343" value="" style="endArrow=none;html=1;rounded=0;exitX=1;exitY=0.5;exitDx=0;exitDy=0;" parent="1" source="3AcrKB5KS1CkjY7Gb4UU-251" edge="1">
          <mxGeometry width="50" height="50" relative="1" as="geometry">
            <mxPoint x="90" y="996.62" as="sourcePoint" />
            <mxPoint x="100" y="1082.62" as="targetPoint" />
          </mxGeometry>
        </mxCell>
        <mxCell id="3AcrKB5KS1CkjY7Gb4UU-344" value="" style="endArrow=none;html=1;rounded=0;entryX=1;entryY=0.5;entryDx=0;entryDy=0;" parent="1" target="3AcrKB5KS1CkjY7Gb4UU-240" edge="1">
          <mxGeometry width="50" height="50" relative="1" as="geometry">
            <mxPoint x="100" y="1183.62" as="sourcePoint" />
            <mxPoint x="120" y="1006.62" as="targetPoint" />
          </mxGeometry>
        </mxCell>
        <mxCell id="3AcrKB5KS1CkjY7Gb4UU-345" value="" style="endArrow=none;html=1;rounded=0;exitX=1;exitY=0.75;exitDx=0;exitDy=0;entryX=0;entryY=0.5;entryDx=0;entryDy=0;edgeStyle=orthogonalEdgeStyle;" parent="1" source="3AcrKB5KS1CkjY7Gb4UU-237" target="QEzAl2PrGgzdigAZb0rT-53" edge="1">
          <mxGeometry width="50" height="50" relative="1" as="geometry">
            <mxPoint x="500" y="910" as="sourcePoint" />
            <mxPoint x="550" y="860" as="targetPoint" />
          </mxGeometry>
        </mxCell>
        <mxCell id="3AcrKB5KS1CkjY7Gb4UU-346" value="" style="endArrow=none;html=1;rounded=0;exitX=1;exitY=0.5;exitDx=0;exitDy=0;entryX=1;entryY=0.5;entryDx=0;entryDy=0;edgeStyle=orthogonalEdgeStyle;" parent="1" source="QEzAl2PrGgzdigAZb0rT-53" target="3AcrKB5KS1CkjY7Gb4UU-329" edge="1">
          <mxGeometry width="50" height="50" relative="1" as="geometry">
            <mxPoint x="430" y="980" as="sourcePoint" />
            <mxPoint x="480" y="930" as="targetPoint" />
          </mxGeometry>
        </mxCell>
        <mxCell id="3AcrKB5KS1CkjY7Gb4UU-347" value="Занимается по абонементу" style="rhombus;whiteSpace=wrap;html=1;" parent="1" vertex="1">
          <mxGeometry x="-120" y="792.12" width="110" height="80" as="geometry" />
        </mxCell>
        <mxCell id="3AcrKB5KS1CkjY7Gb4UU-348" value="" style="endArrow=none;html=1;rounded=0;entryX=0;entryY=0.5;entryDx=0;entryDy=0;exitX=1;exitY=0.5;exitDx=0;exitDy=0;" parent="1" source="3AcrKB5KS1CkjY7Gb4UU-347" target="3AcrKB5KS1CkjY7Gb4UU-237" edge="1">
          <mxGeometry width="50" height="50" relative="1" as="geometry">
            <mxPoint x="-110" y="620" as="sourcePoint" />
            <mxPoint x="-60" y="570" as="targetPoint" />
          </mxGeometry>
        </mxCell>
        <mxCell id="3AcrKB5KS1CkjY7Gb4UU-349" value="" style="endArrow=none;html=1;rounded=0;entryX=1;entryY=0.5;entryDx=0;entryDy=0;exitX=0;exitY=0.5;exitDx=0;exitDy=0;" parent="1" source="3AcrKB5KS1CkjY7Gb4UU-347" target="3AcrKB5KS1CkjY7Gb4UU-306" edge="1">
          <mxGeometry width="50" height="50" relative="1" as="geometry">
            <mxPoint x="-140" y="740" as="sourcePoint" />
            <mxPoint x="-90" y="690" as="targetPoint" />
          </mxGeometry>
        </mxCell>
        <mxCell id="3AcrKB5KS1CkjY7Gb4UU-351" value="Может записаться" style="rhombus;whiteSpace=wrap;html=1;" parent="1" vertex="1">
          <mxGeometry x="470" y="791.88" width="110" height="80" as="geometry" />
        </mxCell>
        <mxCell id="3AcrKB5KS1CkjY7Gb4UU-352" value="" style="endArrow=none;html=1;rounded=0;exitX=1;exitY=0.5;exitDx=0;exitDy=0;entryX=0;entryY=0.5;entryDx=0;entryDy=0;" parent="1" source="3AcrKB5KS1CkjY7Gb4UU-237" target="3AcrKB5KS1CkjY7Gb4UU-351" edge="1">
          <mxGeometry width="50" height="50" relative="1" as="geometry">
            <mxPoint x="780" y="680" as="sourcePoint" />
            <mxPoint x="830" y="630" as="targetPoint" />
          </mxGeometry>
        </mxCell>
        <mxCell id="3AcrKB5KS1CkjY7Gb4UU-353" value="" style="endArrow=none;html=1;rounded=0;entryX=1;entryY=0.5;entryDx=0;entryDy=0;exitX=1;exitY=0.25;exitDx=0;exitDy=0;edgeStyle=orthogonalEdgeStyle;" parent="1" source="3AcrKB5KS1CkjY7Gb4UU-292" target="3AcrKB5KS1CkjY7Gb4UU-351" edge="1">
          <mxGeometry width="50" height="50" relative="1" as="geometry">
            <mxPoint x="1040" y="890" as="sourcePoint" />
            <mxPoint x="1090" y="840" as="targetPoint" />
          </mxGeometry>
        </mxCell>
        <mxCell id="3AcrKB5KS1CkjY7Gb4UU-354" value="" style="endArrow=none;html=1;rounded=0;entryX=1;entryY=0.5;entryDx=0;entryDy=0;exitX=0;exitY=0.5;exitDx=0;exitDy=0;edgeStyle=elbowEdgeStyle;" parent="1" source="3AcrKB5KS1CkjY7Gb4UU-262" target="3AcrKB5KS1CkjY7Gb4UU-260" edge="1">
          <mxGeometry width="50" height="50" relative="1" as="geometry">
            <mxPoint x="1010" y="844.12" as="sourcePoint" />
            <mxPoint x="1060" y="794.12" as="targetPoint" />
          </mxGeometry>
        </mxCell>
        <mxCell id="3AcrKB5KS1CkjY7Gb4UU-355" value="" style="endArrow=none;html=1;rounded=0;entryX=0;entryY=0.5;entryDx=0;entryDy=0;exitX=1;exitY=0.5;exitDx=0;exitDy=0;" parent="1" source="3AcrKB5KS1CkjY7Gb4UU-260" target="3AcrKB5KS1CkjY7Gb4UU-272" edge="1">
          <mxGeometry width="50" height="50" relative="1" as="geometry">
            <mxPoint x="1010" y="844.12" as="sourcePoint" />
            <mxPoint x="1060" y="794.12" as="targetPoint" />
          </mxGeometry>
        </mxCell>
        <mxCell id="3AcrKB5KS1CkjY7Gb4UU-356" value="" style="endArrow=none;html=1;rounded=0;entryX=0;entryY=0.5;entryDx=0;entryDy=0;exitX=0;exitY=0.5;exitDx=0;exitDy=0;edgeStyle=elbowEdgeStyle;" parent="1" source="3AcrKB5KS1CkjY7Gb4UU-261" target="3AcrKB5KS1CkjY7Gb4UU-273" edge="1">
          <mxGeometry width="50" height="50" relative="1" as="geometry">
            <mxPoint x="1010" y="844.12" as="sourcePoint" />
            <mxPoint x="1060" y="794.12" as="targetPoint" />
            <Array as="points">
              <mxPoint x="1070" y="934.12" />
            </Array>
          </mxGeometry>
        </mxCell>
        <mxCell id="3AcrKB5KS1CkjY7Gb4UU-357" value="" style="endArrow=none;html=1;rounded=0;entryX=0;entryY=0.5;entryDx=0;entryDy=0;exitX=0;exitY=0.5;exitDx=0;exitDy=0;edgeStyle=elbowEdgeStyle;" parent="1" source="3AcrKB5KS1CkjY7Gb4UU-268" edge="1">
          <mxGeometry width="50" height="50" relative="1" as="geometry">
            <mxPoint x="1090" y="1089.1799999999998" as="sourcePoint" />
            <mxPoint x="1090" y="886.18" as="targetPoint" />
            <Array as="points">
              <mxPoint x="1070" y="994.12" />
            </Array>
          </mxGeometry>
        </mxCell>
        <mxCell id="3AcrKB5KS1CkjY7Gb4UU-359" value="" style="endArrow=none;html=1;rounded=0;entryX=0;entryY=0.5;entryDx=0;entryDy=0;" parent="1" target="3AcrKB5KS1CkjY7Gb4UU-267" edge="1">
          <mxGeometry width="50" height="50" relative="1" as="geometry">
            <mxPoint x="1070" y="935.12" as="sourcePoint" />
            <mxPoint x="1060" y="794.12" as="targetPoint" />
          </mxGeometry>
        </mxCell>
        <mxCell id="3AcrKB5KS1CkjY7Gb4UU-360" value="Ведет" style="rhombus;whiteSpace=wrap;html=1;" parent="1" vertex="1">
          <mxGeometry x="775" y="1283.56" width="110" height="80" as="geometry" />
        </mxCell>
        <mxCell id="3AcrKB5KS1CkjY7Gb4UU-361" value="" style="endArrow=none;html=1;rounded=0;entryX=1;entryY=0.5;entryDx=0;entryDy=0;exitX=0;exitY=0.5;exitDx=0;exitDy=0;edgeStyle=orthogonalEdgeStyle;" parent="1" source="3AcrKB5KS1CkjY7Gb4UU-260" target="3AcrKB5KS1CkjY7Gb4UU-360" edge="1">
          <mxGeometry width="50" height="50" relative="1" as="geometry">
            <mxPoint x="870" y="1242.32" as="sourcePoint" />
            <mxPoint x="890" y="879.57" as="targetPoint" />
          </mxGeometry>
        </mxCell>
        <mxCell id="3AcrKB5KS1CkjY7Gb4UU-362" value="" style="endArrow=none;html=1;rounded=0;exitX=0;exitY=0.5;exitDx=0;exitDy=0;edgeStyle=orthogonalEdgeStyle;" parent="1" source="3AcrKB5KS1CkjY7Gb4UU-360" target="3AcrKB5KS1CkjY7Gb4UU-277" edge="1">
          <mxGeometry width="50" height="50" relative="1" as="geometry">
            <mxPoint x="910" y="1278" as="sourcePoint" />
            <mxPoint x="874" y="1208" as="targetPoint" />
            <Array as="points">
              <mxPoint x="760" y="1324" />
              <mxPoint x="760" y="1400" />
            </Array>
          </mxGeometry>
        </mxCell>
        <mxCell id="3AcrKB5KS1CkjY7Gb4UU-364" value="Администратор" style="rounded=0;whiteSpace=wrap;html=1;" parent="1" vertex="1">
          <mxGeometry x="800" y="571.5" width="120" height="60" as="geometry" />
        </mxCell>
        <mxCell id="3AcrKB5KS1CkjY7Gb4UU-369" value="" style="endArrow=none;html=1;rounded=0;exitX=1;exitY=0.5;exitDx=0;exitDy=0;entryX=0;entryY=0.25;entryDx=0;entryDy=0;edgeStyle=orthogonalEdgeStyle;" parent="1" source="QEzAl2PrGgzdigAZb0rT-14" target="3AcrKB5KS1CkjY7Gb4UU-260" edge="1">
          <mxGeometry width="50" height="50" relative="1" as="geometry">
            <mxPoint x="560" y="690" as="sourcePoint" />
            <mxPoint x="550" y="660" as="targetPoint" />
          </mxGeometry>
        </mxCell>
        <mxCell id="3AcrKB5KS1CkjY7Gb4UU-372" value="Имеет роль" style="rhombus;whiteSpace=wrap;html=1;" parent="1" vertex="1">
          <mxGeometry x="370" y="561.5" width="110" height="80" as="geometry" />
        </mxCell>
        <mxCell id="3AcrKB5KS1CkjY7Gb4UU-374" value="" style="endArrow=none;html=1;rounded=0;exitX=1;exitY=0.5;exitDx=0;exitDy=0;" parent="1" source="QEzAl2PrGgzdigAZb0rT-1" target="3AcrKB5KS1CkjY7Gb4UU-372" edge="1">
          <mxGeometry width="50" height="50" relative="1" as="geometry">
            <mxPoint x="770" y="860" as="sourcePoint" />
            <mxPoint x="820" y="810" as="targetPoint" />
          </mxGeometry>
        </mxCell>
        <mxCell id="3AcrKB5KS1CkjY7Gb4UU-375" value="Редактирует" style="rhombus;whiteSpace=wrap;html=1;" parent="1" vertex="1">
          <mxGeometry x="1220" y="907.12" width="110" height="80" as="geometry" />
        </mxCell>
        <mxCell id="3AcrKB5KS1CkjY7Gb4UU-376" value="" style="endArrow=none;html=1;rounded=0;exitX=1;exitY=0.5;exitDx=0;exitDy=0;entryX=0;entryY=0.5;entryDx=0;entryDy=0;edgeStyle=elbowEdgeStyle;" parent="1" source="3AcrKB5KS1CkjY7Gb4UU-364" target="3AcrKB5KS1CkjY7Gb4UU-375" edge="1">
          <mxGeometry width="50" height="50" relative="1" as="geometry">
            <mxPoint x="940" y="930" as="sourcePoint" />
            <mxPoint x="990" y="880" as="targetPoint" />
            <Array as="points">
              <mxPoint x="1190" y="760" />
            </Array>
          </mxGeometry>
        </mxCell>
        <mxCell id="3AcrKB5KS1CkjY7Gb4UU-377" value="" style="endArrow=none;html=1;rounded=0;exitX=1;exitY=0.5;exitDx=0;exitDy=0;entryX=1;entryY=0.5;entryDx=0;entryDy=0;edgeStyle=elbowEdgeStyle;" parent="1" source="3AcrKB5KS1CkjY7Gb4UU-292" target="3AcrKB5KS1CkjY7Gb4UU-375" edge="1">
          <mxGeometry width="50" height="50" relative="1" as="geometry">
            <mxPoint x="710" y="1130" as="sourcePoint" />
            <mxPoint x="990" y="880" as="targetPoint" />
            <Array as="points">
              <mxPoint x="1360" y="1050" />
            </Array>
          </mxGeometry>
        </mxCell>
        <mxCell id="3AcrKB5KS1CkjY7Gb4UU-379" value="Включает" style="rhombus;whiteSpace=wrap;html=1;" parent="1" vertex="1">
          <mxGeometry x="635" y="1190.9299999999998" width="110" height="80" as="geometry" />
        </mxCell>
        <mxCell id="3AcrKB5KS1CkjY7Gb4UU-381" value="" style="endArrow=none;html=1;rounded=0;entryX=1;entryY=0.75;entryDx=0;entryDy=0;exitX=1;exitY=0.5;exitDx=0;exitDy=0;edgeStyle=elbowEdgeStyle;" parent="1" source="3AcrKB5KS1CkjY7Gb4UU-379" target="3AcrKB5KS1CkjY7Gb4UU-292" edge="1">
          <mxGeometry width="50" height="50" relative="1" as="geometry">
            <mxPoint x="700" y="1320" as="sourcePoint" />
            <mxPoint x="750" y="1270" as="targetPoint" />
            <Array as="points">
              <mxPoint x="780" y="1230" />
            </Array>
          </mxGeometry>
        </mxCell>
        <mxCell id="3AcrKB5KS1CkjY7Gb4UU-382" value="" style="endArrow=none;html=1;rounded=0;entryX=0;entryY=0.5;entryDx=0;entryDy=0;exitX=1;exitY=0.5;exitDx=0;exitDy=0;edgeStyle=elbowEdgeStyle;elbow=vertical;" parent="1" source="3AcrKB5KS1CkjY7Gb4UU-277" target="3AcrKB5KS1CkjY7Gb4UU-379" edge="1">
          <mxGeometry width="50" height="50" relative="1" as="geometry">
            <mxPoint x="700" y="1320" as="sourcePoint" />
            <mxPoint x="750" y="1270" as="targetPoint" />
            <Array as="points">
              <mxPoint x="610" y="1380" />
            </Array>
          </mxGeometry>
        </mxCell>
        <mxCell id="3AcrKB5KS1CkjY7Gb4UU-383" value="N" style="text;html=1;align=center;verticalAlign=middle;resizable=0;points=[];autosize=1;strokeColor=none;fillColor=none;" parent="1" vertex="1">
          <mxGeometry y="828.94" width="30" height="30" as="geometry" />
        </mxCell>
        <mxCell id="3AcrKB5KS1CkjY7Gb4UU-384" value="1" style="text;html=1;align=center;verticalAlign=middle;resizable=0;points=[];autosize=1;strokeColor=none;fillColor=none;" parent="1" vertex="1">
          <mxGeometry x="-165" y="808" width="30" height="30" as="geometry" />
        </mxCell>
        <mxCell id="3AcrKB5KS1CkjY7Gb4UU-385" value="1" style="text;html=1;align=center;verticalAlign=middle;resizable=0;points=[];autosize=1;strokeColor=none;fillColor=none;" parent="1" vertex="1">
          <mxGeometry x="245" y="578" width="30" height="30" as="geometry" />
        </mxCell>
        <mxCell id="3AcrKB5KS1CkjY7Gb4UU-387" value="1" style="text;html=1;align=center;verticalAlign=middle;resizable=0;points=[];autosize=1;strokeColor=none;fillColor=none;" parent="1" vertex="1">
          <mxGeometry x="775" y="578" width="30" height="30" as="geometry" />
        </mxCell>
        <mxCell id="3AcrKB5KS1CkjY7Gb4UU-389" value="1" style="text;html=1;align=center;verticalAlign=middle;resizable=0;points=[];autosize=1;strokeColor=none;fillColor=none;" parent="1" vertex="1">
          <mxGeometry x="900" y="749.25" width="30" height="30" as="geometry" />
        </mxCell>
        <mxCell id="3AcrKB5KS1CkjY7Gb4UU-391" value="1" style="text;html=1;align=center;verticalAlign=middle;resizable=0;points=[];autosize=1;strokeColor=none;fillColor=none;" parent="1" vertex="1">
          <mxGeometry x="915" y="578" width="30" height="30" as="geometry" />
        </mxCell>
        <mxCell id="3AcrKB5KS1CkjY7Gb4UU-392" value="N" style="text;html=1;align=center;verticalAlign=middle;resizable=0;points=[];autosize=1;strokeColor=none;fillColor=none;" parent="1" vertex="1">
          <mxGeometry x="795" y="1088" width="30" height="30" as="geometry" />
        </mxCell>
        <mxCell id="3AcrKB5KS1CkjY7Gb4UU-393" value="N" style="text;html=1;align=center;verticalAlign=middle;resizable=0;points=[];autosize=1;strokeColor=none;fillColor=none;" parent="1" vertex="1">
          <mxGeometry x="715" y="1128" width="30" height="30" as="geometry" />
        </mxCell>
        <mxCell id="3AcrKB5KS1CkjY7Gb4UU-394" value="1" style="text;html=1;align=center;verticalAlign=middle;resizable=0;points=[];autosize=1;strokeColor=none;fillColor=none;" parent="1" vertex="1">
          <mxGeometry x="595" y="1351.81" width="30" height="30" as="geometry" />
        </mxCell>
        <mxCell id="3AcrKB5KS1CkjY7Gb4UU-395" value="1" style="text;html=1;align=center;verticalAlign=middle;resizable=0;points=[];autosize=1;strokeColor=none;fillColor=none;" parent="1" vertex="1">
          <mxGeometry x="165" y="808" width="30" height="30" as="geometry" />
        </mxCell>
        <mxCell id="3AcrKB5KS1CkjY7Gb4UU-396" value="1" style="text;html=1;align=center;verticalAlign=middle;resizable=0;points=[];autosize=1;strokeColor=none;fillColor=none;" parent="1" vertex="1">
          <mxGeometry x="695" y="1058" width="30" height="30" as="geometry" />
        </mxCell>
        <mxCell id="3AcrKB5KS1CkjY7Gb4UU-397" value="1" style="text;html=1;align=center;verticalAlign=middle;resizable=0;points=[];autosize=1;strokeColor=none;fillColor=none;" parent="1" vertex="1">
          <mxGeometry x="885" y="831.88" width="30" height="30" as="geometry" />
        </mxCell>
        <mxCell id="3AcrKB5KS1CkjY7Gb4UU-398" value="N" style="text;html=1;align=center;verticalAlign=middle;resizable=0;points=[];autosize=1;strokeColor=none;fillColor=none;" parent="1" vertex="1">
          <mxGeometry x="755" y="1068" width="30" height="30" as="geometry" />
        </mxCell>
        <mxCell id="3AcrKB5KS1CkjY7Gb4UU-399" value="1" style="text;html=1;align=center;verticalAlign=middle;resizable=0;points=[];autosize=1;strokeColor=none;fillColor=none;" parent="1" vertex="1">
          <mxGeometry x="385" y="1038" width="30" height="30" as="geometry" />
        </mxCell>
        <mxCell id="3AcrKB5KS1CkjY7Gb4UU-400" value="N" style="text;html=1;align=center;verticalAlign=middle;resizable=0;points=[];autosize=1;strokeColor=none;fillColor=none;" parent="1" vertex="1">
          <mxGeometry x="155" y="838" width="30" height="30" as="geometry" />
        </mxCell>
        <mxCell id="hr-oT0ozeoa9VFU8J_eZ-1" value="Смотрит кол-во своих бонусов" style="rhombus;whiteSpace=wrap;html=1;" vertex="1" parent="1">
          <mxGeometry x="-100" y="668" width="110" height="80" as="geometry" />
        </mxCell>
        <mxCell id="hr-oT0ozeoa9VFU8J_eZ-2" value="" style="endArrow=none;html=1;rounded=0;exitX=1;exitY=0.5;exitDx=0;exitDy=0;entryX=0;entryY=0.25;entryDx=0;entryDy=0;edgeStyle=elbowEdgeStyle;" edge="1" parent="1" source="hr-oT0ozeoa9VFU8J_eZ-1" target="3AcrKB5KS1CkjY7Gb4UU-237">
          <mxGeometry width="50" height="50" relative="1" as="geometry">
            <mxPoint x="430" y="780" as="sourcePoint" />
            <mxPoint x="480" y="730" as="targetPoint" />
          </mxGeometry>
        </mxCell>
        <mxCell id="hr-oT0ozeoa9VFU8J_eZ-4" value="1" style="edgeLabel;html=1;align=center;verticalAlign=middle;resizable=0;points=[];" vertex="1" connectable="0" parent="hr-oT0ozeoa9VFU8J_eZ-2">
          <mxGeometry x="0.4689" relative="1" as="geometry">
            <mxPoint x="-10" y="9" as="offset" />
          </mxGeometry>
        </mxCell>
        <mxCell id="hr-oT0ozeoa9VFU8J_eZ-3" value="" style="endArrow=none;html=1;rounded=0;exitX=1;exitY=0.5;exitDx=0;exitDy=0;entryX=0;entryY=0.5;entryDx=0;entryDy=0;edgeStyle=elbowEdgeStyle;" edge="1" parent="1" source="3AcrKB5KS1CkjY7Gb4UU-320" target="hr-oT0ozeoa9VFU8J_eZ-1">
          <mxGeometry width="50" height="50" relative="1" as="geometry">
            <mxPoint x="430" y="780" as="sourcePoint" />
            <mxPoint x="480" y="730" as="targetPoint" />
          </mxGeometry>
        </mxCell>
        <mxCell id="hr-oT0ozeoa9VFU8J_eZ-5" value="1" style="edgeLabel;html=1;align=center;verticalAlign=middle;resizable=0;points=[];" vertex="1" connectable="0" parent="hr-oT0ozeoa9VFU8J_eZ-3">
          <mxGeometry x="-0.7385" y="4" relative="1" as="geometry">
            <mxPoint as="offset" />
          </mxGeometry>
        </mxCell>
        <mxCell id="hr-oT0ozeoa9VFU8J_eZ-8" value="N" style="text;html=1;align=center;verticalAlign=middle;resizable=0;points=[];autosize=1;strokeColor=none;fillColor=none;" vertex="1" parent="1">
          <mxGeometry x="595" y="1398" width="30" height="30" as="geometry" />
        </mxCell>
        <mxCell id="hr-oT0ozeoa9VFU8J_eZ-9" value="" style="endArrow=none;html=1;rounded=0;exitX=1;exitY=0.5;exitDx=0;exitDy=0;entryX=0;entryY=0.5;entryDx=0;entryDy=0;" edge="1" parent="1" source="3AcrKB5KS1CkjY7Gb4UU-372" target="3AcrKB5KS1CkjY7Gb4UU-364">
          <mxGeometry width="50" height="50" relative="1" as="geometry">
            <mxPoint x="550" y="890" as="sourcePoint" />
            <mxPoint x="600" y="840" as="targetPoint" />
          </mxGeometry>
        </mxCell>
        <mxCell id="hr-oT0ozeoa9VFU8J_eZ-10" value="id" style="ellipse;whiteSpace=wrap;html=1;" vertex="1" parent="1">
          <mxGeometry x="-397.5" y="617.25" width="70" height="36.5" as="geometry" />
        </mxCell>
        <mxCell id="hr-oT0ozeoa9VFU8J_eZ-11" value="" style="endArrow=none;html=1;rounded=0;exitX=1;exitY=0.5;exitDx=0;exitDy=0;" edge="1" parent="1" source="hr-oT0ozeoa9VFU8J_eZ-10">
          <mxGeometry width="50" height="50" relative="1" as="geometry">
            <mxPoint x="-287.5" y="692.25" as="sourcePoint" />
            <mxPoint x="-307" y="720" as="targetPoint" />
            <Array as="points">
              <mxPoint x="-307.5" y="635.75" />
              <mxPoint x="-307.5" y="685.75" />
            </Array>
          </mxGeometry>
        </mxCell>
      </root>
    </mxGraphModel>
  </diagram>
</mxfile>
